
<svg version="1.1" id="Layer_1" xmlns="http://www.w3.org/2000/svg" xmlns:xlink="http://www.w3.org/1999/xlink" x="0px" y="0px"
	 viewBox="0 0 512 512" style="enable-background:new 0 0 512 512;" xml:space="preserve">
<style type="text/css">
	.st0{opacity:0.68;}
	.st1{opacity:0.47;fill:#76DCFF;}
	.st2{opacity:0.41;fill:#76DCFF;}
	.st3{opacity:0.43;}
	.st4{fill:#76DCFF;}
	.st5{fill:#17014C;}
	.st6{fill:#009CD3;}
	.st7{fill:#FFB54A;}
	.st8{fill:#1B1B25;}
	.st9{fill:#FCF0E3;}
	.st10{fill:#FFFFFF;}
	.st11{display:none;}
	.st12{display:inline;fill:#FFB54A;}
	.st13{display:inline;}
	.st14{fill:#FEC29E;}
	.st15{fill:none;}
	.st16{opacity:0.17;fill:#FF887C;}
	.st17{fill:#FB8E77;}
	.st18{fill:none;stroke:#FB8E77;stroke-linecap:round;stroke-miterlimit:10;}
	.st19{opacity:5.000000e-02;fill:#1B1B25;}
	.st20{opacity:0.18;fill:#FF887C;}
	.st21{opacity:0.35;fill:#1B1B25;}
	.st22{opacity:0.32;fill:#FF887C;}
	.st23{opacity:8.000000e-02;fill:#FF887C;}
</style>
<g>
	<g>
		<g>
			<g class="st0">
				<path class="st1" d="M444.8,248.4c-1.9-19-11.1-38.1-27.1-51.7c-24.9-21.2-62.5-26.6-95.4-21.7c-13.8,2.1-27.5,5.7-41.6,4.6
					c-20.6-1.7-38.8-13.1-57.5-21.5c-25.5-11.4-54.8-17.6-82-12.6c-30.8,5.6-56,26.9-59.1,55.2c-1.4,12.8,12.5,35.4,8.1,47.5
					c-4.4,12.3-36.9,50-36.1,78.7c0.8,28.6,8.3,37.5,18.8,52h8.4h317.8h18.3c6.6-14.7,11.7-26.5,4-45.8c-6.1-15.4,10.6-28.2,17-42.5
					C444.3,277.7,446.2,262.3,444.8,248.4z"/>
			</g>
			<path class="st2" d="M17.5,251.2c-6.6-12.9-1.5-28.6,11.4-35.2c12.9-6.6,37.6-6,44.1,6.8c6.6,12.9-13.2,23.8-21.3,35.8
				C40.4,275.4,24.1,264.1,17.5,251.2z"/>
			<path class="st2" d="M469.2,301c6.3,6.8,6.8,16.6,1.1,21.8c-5.7,5.2-19.3,7.6-25.6,0.7c-6.3-6.8,2.2-15.4,4.2-23.2
				C451.6,289.4,462.9,294.2,469.2,301z"/>
			<path class="st2" d="M416.2,147.6c7.3-3.9,16.3-1.1,20.2,6.2c3.9,7.3,3.7,21.4-3.6,25.3c-7.3,3.9-13.7-7.4-20.6-11.9
				C402.6,160.9,408.9,151.4,416.2,147.6z"/>
		</g>
		<g class="st3">
			<path class="st4" d="M406.8,362c3.4-16.7-2-30.9-3.4-47.3c-1.3-15.5,4.2-28.5,7.3-43.3c2.7-13.1,1.8-28-1.6-40.9
				c-4.7-17.6-15.4-33.9-30.8-43.9c-24.1-15.5-56.2-13.7-82.8-3c-11.1,4.5-21.9,10.4-33.9,11.9c-17.4,2.2-34.3-5.3-51.3-9.8
				c-23.1-6.1-48.4-6.6-70.2,3.1c-24.7,11-42.2,35.7-40.2,63c0.9,12.3,5.7,24.5,4,36.8c-1.7,12.4-9.1,22.9-13,34.6
				c-5.3,16-5.8,39.5,2.8,55.7H401C403.6,373.5,405.6,367.9,406.8,362z"/>
		</g>
		<g>
			<g>
				<path class="st1" d="M349.6,309.7c-1-10.1-5.7-20.2-13.9-27.4c-12.7-11.2-32-14.1-48.9-11.5c-7.1,1.1-14.1,3-21.3,2.4
					c-10.6-0.9-19.9-7-29.5-11.4c-13.1-6.1-28.1-9.3-42-6.7c-15.8,3-28.7,14.3-30.3,29.3c-0.7,6.8,6.4,18.7,4.2,25.2
					c-2.3,6.5-18.9,26.5-18.5,41.7c0.4,15.1,4.2,19.9,9.6,27.6h4.3h162.8h9.4c3.4-7.8,6-14,2.1-24.3c-3.1-8.2,5.4-14.9,8.7-22.5
					C349.4,325.2,350.3,317.1,349.6,309.7z"/>
			</g>
		</g>
	</g>
	<path class="st4" d="M493.1,381.1H35.3c-0.6,0-1.1-0.5-1.1-1.1l0,0c0-0.6,0.5-1.1,1.1-1.1h457.8c0.6,0,1.1,0.5,1.1,1.1l0,0
		C494.2,380.6,493.7,381.1,493.1,381.1z"/>
	<circle class="st5" cx="475.6" cy="275.7" r="3.2"/>
	<circle class="st6" cx="453.1" cy="363.7" r="2.5"/>
	<circle class="st6" cx="70.7" cy="165.8" r="3.2"/>
	<path class="st5" d="M40.9,354.5c0,1.9-1.5,3.4-3.4,3.4c-1.9,0-3.4-1.5-3.4-3.4s1.5-3.4,3.4-3.4C39.4,351.1,40.9,352.6,40.9,354.5z
		"/>
	<circle class="st5" cx="50.3" cy="181.3" r="1.1"/>
	<path class="st6" d="M320.4,140.4c-1,4.6-5.5,7.5-10,6.5c-4.6-1-7.5-5.5-6.5-10c1-4.6,5.5-7.5,10-6.5
		C318.4,131.4,321.3,135.9,320.4,140.4z"/>
	<path class="st7" d="M453.8,153.1c-0.3,1.4-1.7,2.3-3,2s-2.3-1.7-2-3c0.3-1.4,1.7-2.3,3-2C453.2,150.4,454.1,151.7,453.8,153.1z"/>
	<path class="st7" d="M122.9,136.8c-0.3,1.4-1.7,2.3-3,2c-1.4-0.3-2.3-1.7-2-3c0.3-1.4,1.7-2.3,3-2
		C122.4,134,123.2,135.4,122.9,136.8z"/>
	<path class="st6" d="M475,211c-0.3,1.4-1.7,2.3-3,2c-1.4-0.3-2.3-1.7-2-3c0.3-1.4,1.7-2.3,3-2C474.4,208.2,475.3,209.6,475,211z"/>
	<path class="st5" d="M290,148.5c-0.2,1.1-1.3,1.8-2.4,1.5c-1.1-0.2-1.8-1.3-1.5-2.4c0.2-1.1,1.3-1.8,2.4-1.5
		C289.6,146.3,290.3,147.4,290,148.5z"/>
	<g>
		<g>
			<circle class="st8" cx="257.7" cy="189.8" r="40.5"/>
			<circle class="st7" cx="253.4" cy="185.5" r="40.5"/>
			<path class="st9" d="M253.4,218.2c-18,0-32.6-14.6-32.6-32.6c0-18,14.6-32.6,32.6-32.6c18,0,32.6,14.6,32.6,32.6
				C286,203.6,271.4,218.2,253.4,218.2z M253.4,155.1c-16.8,0-30.5,13.7-30.5,30.5c0,16.8,13.7,30.5,30.5,30.5
				c16.8,0,30.5-13.7,30.5-30.5C283.9,168.8,270.3,155.1,253.4,155.1z"/>
			<g>
				<g>
					<path class="st8" d="M251.1,200.2c-2-0.2-4-0.8-5.9-1.5c-1.9-0.8-3.6-1.7-5.2-2.9l3.7-5.3c1.3,1,2.5,1.8,3.7,2.4
						c1.2,0.6,2.5,1.1,3.9,1.4v-7.5c-1.7-0.5-3.2-1-4.4-1.5c-1.3-0.6-2.3-1.2-3.1-2c-0.8-0.8-1.5-1.7-1.9-2.7
						c-0.4-1-0.6-2.3-0.6-3.6v-0.1c0-1.3,0.2-2.5,0.7-3.6c0.5-1.1,1.1-2,2-2.8c0.9-0.8,1.9-1.4,3.1-1.9c1.2-0.5,2.6-0.8,4-1v-2.7
						h4.9v2.8c1.7,0.3,3.2,0.7,4.7,1.2c1.4,0.6,2.8,1.3,4.1,2.2l-3.1,5.5c-0.9-0.6-1.9-1.2-2.9-1.7c-1-0.5-2-0.9-3-1.1v7.1
						c3.6,1,6.2,2.2,7.8,3.8c1.6,1.6,2.4,3.7,2.4,6.3v0.1c0,1.3-0.2,2.5-0.7,3.6c-0.5,1.1-1.2,2-2,2.8c-0.9,0.8-1.9,1.4-3.1,1.9
						c-1.2,0.5-2.6,0.8-4.1,1v4.6h-4.9V200.2z M251.3,173.4c-1.1,0.2-1.9,0.5-2.5,1c-0.5,0.5-0.8,1.1-0.8,1.9v0.1
						c0,0.7,0.2,1.3,0.7,1.9c0.4,0.5,1.3,1,2.6,1.5V173.4z M255.7,194.4c2.2-0.3,3.3-1.3,3.3-3v-0.1c0-0.8-0.2-1.5-0.7-2
						c-0.5-0.5-1.3-1-2.6-1.5V194.4z"/>
				</g>
			</g>
		</g>
		<g>
			<circle class="st8" cx="257.7" cy="189.8" r="40.5"/>
			<circle class="st7" cx="253.4" cy="185.5" r="40.5"/>
			<path class="st9" d="M253.4,218.2c-18,0-32.6-14.6-32.6-32.6c0-18,14.6-32.6,32.6-32.6c18,0,32.6,14.6,32.6,32.6
				C286,203.6,271.4,218.2,253.4,218.2z M253.4,155.1c-16.8,0-30.5,13.7-30.5,30.5c0,16.8,13.7,30.5,30.5,30.5
				c16.8,0,30.5-13.7,30.5-30.5C283.9,168.8,270.3,155.1,253.4,155.1z"/>
			<g>
				<g>
					<path class="st8" d="M251.1,200.2c-2-0.2-4-0.8-5.9-1.5c-1.9-0.8-3.6-1.7-5.2-2.9l3.7-5.3c1.3,1,2.5,1.8,3.7,2.4
						c1.2,0.6,2.5,1.1,3.9,1.4v-7.5c-1.7-0.5-3.2-1-4.4-1.5c-1.3-0.6-2.3-1.2-3.1-2c-0.8-0.8-1.5-1.7-1.9-2.7
						c-0.4-1-0.6-2.3-0.6-3.6v-0.1c0-1.3,0.2-2.5,0.7-3.6c0.5-1.1,1.1-2,2-2.8c0.9-0.8,1.9-1.4,3.1-1.9c1.2-0.5,2.6-0.8,4-1v-2.7
						h4.9v2.8c1.7,0.3,3.2,0.7,4.7,1.2c1.4,0.6,2.8,1.3,4.1,2.2l-3.1,5.5c-0.9-0.6-1.9-1.2-2.9-1.7c-1-0.5-2-0.9-3-1.1v7.1
						c3.6,1,6.2,2.2,7.8,3.8c1.6,1.6,2.4,3.7,2.4,6.3v0.1c0,1.3-0.2,2.5-0.7,3.6c-0.5,1.1-1.2,2-2,2.8c-0.9,0.8-1.9,1.4-3.1,1.9
						c-1.2,0.5-2.6,0.8-4.1,1v4.6h-4.9V200.2z M251.3,173.4c-1.1,0.2-1.9,0.5-2.5,1c-0.5,0.5-0.8,1.1-0.8,1.9v0.1
						c0,0.7,0.2,1.3,0.7,1.9c0.4,0.5,1.3,1,2.6,1.5V173.4z M255.7,194.4c2.2-0.3,3.3-1.3,3.3-3v-0.1c0-0.8-0.2-1.5-0.7-2
						c-0.5-0.5-1.3-1-2.6-1.5V194.4z"/>
				</g>
			</g>
		</g>
		<g>
			<circle class="st8" cx="213.1" cy="166.8" r="18.3"/>
			<circle class="st7" cx="211.2" cy="164.9" r="18.3"/>
			<path class="st9" d="M211.2,179.7c-8.1,0-14.7-6.6-14.7-14.7c0-8.1,6.6-14.7,14.7-14.7c8.1,0,14.7,6.6,14.7,14.7
				C225.9,173,219.3,179.7,211.2,179.7z M211.2,151.1c-7.6,0-13.8,6.2-13.8,13.8c0,7.6,6.2,13.8,13.8,13.8c7.6,0,13.8-6.2,13.8-13.8
				C225,157.3,218.8,151.1,211.2,151.1z"/>
			<g>
				<g>
					<path class="st8" d="M210.1,171.5c-0.9-0.1-1.8-0.3-2.7-0.7c-0.9-0.3-1.6-0.8-2.3-1.3l1.7-2.4c0.6,0.4,1.1,0.8,1.7,1.1
						c0.5,0.3,1.1,0.5,1.8,0.6v-3.4c-0.8-0.2-1.4-0.4-2-0.7c-0.6-0.3-1-0.6-1.4-0.9c-0.4-0.4-0.7-0.8-0.8-1.2
						c-0.2-0.5-0.3-1-0.3-1.6v0c0-0.6,0.1-1.1,0.3-1.6c0.2-0.5,0.5-0.9,0.9-1.3c0.4-0.4,0.9-0.6,1.4-0.9c0.6-0.2,1.2-0.4,1.8-0.4
						v-1.2h2.2v1.3c0.8,0.1,1.5,0.3,2.1,0.6c0.6,0.3,1.3,0.6,1.8,1l-1.4,2.5c-0.4-0.3-0.9-0.5-1.3-0.8c-0.4-0.2-0.9-0.4-1.3-0.5v3.2
						c1.6,0.4,2.8,1,3.5,1.7c0.7,0.7,1.1,1.7,1.1,2.8v0c0,0.6-0.1,1.1-0.3,1.6c-0.2,0.5-0.5,0.9-0.9,1.3c-0.4,0.4-0.9,0.6-1.4,0.9
						c-0.6,0.2-1.2,0.4-1.8,0.4v2.1h-2.2V171.5z M210.2,159.4c-0.5,0.1-0.9,0.2-1.1,0.5c-0.2,0.2-0.4,0.5-0.4,0.9v0
						c0,0.3,0.1,0.6,0.3,0.8c0.2,0.2,0.6,0.5,1.2,0.7V159.4z M212.2,168.9c1-0.2,1.5-0.6,1.5-1.4v0c0-0.4-0.1-0.7-0.3-0.9
						c-0.2-0.2-0.6-0.5-1.2-0.7V168.9z"/>
				</g>
			</g>
		</g>
		<path class="st10" d="M190.5,197.7L190.5,197.7c0-4.4-3.6-8-8-8l0,0c4.4,0,8-3.6,8-8l0,0c0,4.4,3.6,8,8,8l0,0
			C194.1,189.8,190.5,193.4,190.5,197.7z"/>
		<path class="st10" d="M283.9,237.7L283.9,237.7c0-3.2-2.6-5.8-5.8-5.8v0c3.2,0,5.8-2.6,5.8-5.8l0,0c0,3.2,2.6,5.8,5.8,5.8v0
			C286.5,231.9,283.9,234.5,283.9,237.7z"/>
		<path class="st10" d="M245.8,265.9L245.8,265.9c0-5.9-4.8-10.7-10.7-10.7l0,0c5.9,0,10.7-4.8,10.7-10.7l0,0
			c0,5.9,4.8,10.7,10.7,10.7l0,0C250.6,255.1,245.8,259.9,245.8,265.9z"/>
		<path class="st9" d="M282.8,183L282.8,183c0-5.6-4.5-10.1-10.1-10.1l0,0c5.6,0,10.1-4.5,10.1-10.1l0,0c0,5.6,4.5,10.1,10.1,10.1
			l0,0C287.3,172.9,282.8,177.4,282.8,183z"/>
		<path class="st10" d="M316.5,189.8L316.5,189.8c0-3.1-2.5-5.6-5.6-5.6l0,0c3.1,0,5.6-2.5,5.6-5.6l0,0c0,3.1,2.5,5.6,5.6,5.6l0,0
			C319,184.2,316.5,186.7,316.5,189.8z"/>
	</g>
	<g>
		<path class="st6" d="M146.4,171.3H84.6c-6.4,0-11.5,5.2-11.5,11.5c0,6.4,5.2,11.5,11.5,11.5h51l7,6.4v-6.4h3.9
			c6.4,0,11.5-5.2,11.5-11.5C157.9,176.4,152.7,171.3,146.4,171.3z"/>
		<path class="st7" d="M90.1,181.2c0.8-0.7,1.3-1.7,1.3-2.8c0-2-1.6-3.6-3.6-3.6c-2,0-3.6,1.6-3.6,3.6c0,1.1,0.5,2.1,1.3,2.8
			c-2.6,1-4.4,3.4-4.4,6.3c0,3.7,13.5,3.7,13.5,0C94.6,184.6,92.7,182.2,90.1,181.2z"/>
		<g>
			<path class="st10" d="M147.2,177.5h-44.3c-0.2,0-0.4-0.2-0.4-0.4c0-0.2,0.2-0.4,0.4-0.4h44.3c0.2,0,0.4,0.2,0.4,0.4
				C147.5,177.3,147.3,177.5,147.2,177.5z"/>
			<path class="st10" d="M140.3,187.9h-37.4c-0.2,0-0.4-0.2-0.4-0.4c0-0.2,0.2-0.4,0.4-0.4h37.4c0.2,0,0.4,0.2,0.4,0.4
				C140.6,187.7,140.5,187.9,140.3,187.9z"/>
			<path class="st10" d="M130.1,183h-27.2c-0.2,0-0.4-0.2-0.4-0.4c0-0.2,0.2-0.4,0.4-0.4h27.2c0.2,0,0.4,0.2,0.4,0.4
				C130.4,182.8,130.3,183,130.1,183z"/>
			<path class="st10" d="M147.2,183h-13.7c-0.2,0-0.4-0.2-0.4-0.4c0-0.2,0.2-0.4,0.4-0.4h13.7c0.2,0,0.4,0.2,0.4,0.4
				C147.5,182.8,147.3,183,147.2,183z"/>
		</g>
		<path class="st10" d="M92.2,186.5c-0.3,0-0.5-0.1-0.7-0.3l-2.7-2.7c-0.4-0.4-0.4-1.1,0-1.5c0.4-0.4,1.1-0.4,1.5,0l1.9,1.9l5.1-5.1
			c0.4-0.4,1.1-0.4,1.5,0c0.4,0.4,0.4,1.1,0,1.5l-5.9,5.9C92.7,186.4,92.4,186.5,92.2,186.5z"/>
		<g class="st11">
			<path class="st12" d="M422.1,231.2h63.4c6.5,0,11.8,5.3,11.8,11.8c0,6.5-5.3,11.8-11.8,11.8h-52.3l-7.2,6.6v-6.6h-4
				c-6.5,0-11.8-5.3-11.8-11.8C410.3,236.5,415.6,231.2,422.1,231.2z"/>
			<g class="st13">
				<g>
					<g>
						<path class="st6" d="M484.1,241.3c0.8-0.7,1.3-1.7,1.3-2.8c0-2-1.6-3.6-3.6-3.6c-2,0-3.6,1.6-3.6,3.6c0,1.1,0.5,2.1,1.3,2.8
							c-2.6,1-4.4,3.4-4.4,6.3c0,3.7,13.5,3.7,13.5,0C488.6,244.7,486.7,242.3,484.1,241.3z"/>
						<g>
							<path class="st10" d="M489.7,243.3h-1.7v-1.7c0-0.2-0.2-0.3-0.3-0.3H486c-0.2,0-0.3,0.2-0.3,0.3v1.7h-1.7
								c-0.2,0-0.3,0.2-0.3,0.3v1.6c0,0.2,0.2,0.3,0.3,0.3h1.7v1.7c0,0.2,0.2,0.3,0.3,0.3h1.6c0.2,0,0.3-0.2,0.3-0.3v-1.7h1.7
								c0.2,0,0.3-0.2,0.3-0.3v-1.6C490,243.5,489.9,243.3,489.7,243.3z"/>
						</g>
					</g>
				</g>
			</g>
			<g class="st13">
				<path class="st10" d="M469.5,238.3h-44.3c-0.2,0-0.4-0.2-0.4-0.4c0-0.2,0.2-0.4,0.4-0.4h44.3c0.2,0,0.4,0.2,0.4,0.4
					C469.9,238.1,469.7,238.3,469.5,238.3z"/>
				<path class="st10" d="M462.6,248.7h-37.4c-0.2,0-0.4-0.2-0.4-0.4c0-0.2,0.2-0.4,0.4-0.4h37.4c0.2,0,0.4,0.2,0.4,0.4
					C463,248.5,462.8,248.7,462.6,248.7z"/>
				<path class="st10" d="M452.4,243.8h-27.2c-0.2,0-0.4-0.2-0.4-0.4c0-0.2,0.2-0.4,0.4-0.4h27.2c0.2,0,0.4,0.2,0.4,0.4
					C452.8,243.6,452.6,243.8,452.4,243.8z"/>
				<path class="st10" d="M469.5,243.8h-13.7c-0.2,0-0.4-0.2-0.4-0.4c0-0.2,0.2-0.4,0.4-0.4h13.7c0.2,0,0.4,0.2,0.4,0.4
					C469.9,243.6,469.7,243.8,469.5,243.8z"/>
			</g>
		</g>
		<g>
			<path class="st6" d="M342.4,163.1h43.7c4.5,0,8.1,3.6,8.1,8.1c0,4.5-3.6,8.1-8.1,8.1h-41h-2.7c-4.5,0-8.1-3.6-8.1-8.1
				C334.3,166.8,337.9,163.1,342.4,163.1z"/>
			<g>
				<path class="st10" d="M381.2,168.6h-33.9c-0.2,0-0.4-0.2-0.4-0.4c0-0.2,0.2-0.4,0.4-0.4h33.9c0.2,0,0.4,0.2,0.4,0.4
					C381.5,168.4,381.3,168.6,381.2,168.6z"/>
				<path class="st10" d="M375.9,174.8h-28.6c-0.2,0-0.4-0.2-0.4-0.4c0-0.2,0.2-0.4,0.4-0.4h28.6c0.2,0,0.4,0.2,0.4,0.4
					C376.3,174.6,376.1,174.8,375.9,174.8z"/>
				<path class="st10" d="M368.1,171.9h-20.8c-0.2,0-0.4-0.2-0.4-0.4c0-0.2,0.2-0.4,0.4-0.4h20.8c0.2,0,0.4,0.2,0.4,0.4
					C368.5,171.7,368.3,171.9,368.1,171.9z"/>
				<path class="st10" d="M381.2,171.9h-10.5c-0.2,0-0.4-0.2-0.4-0.4c0-0.2,0.2-0.4,0.4-0.4h10.5c0.2,0,0.4,0.2,0.4,0.4
					C381.5,171.7,381.3,171.9,381.2,171.9z"/>
			</g>
		</g>
		<g>
			<path class="st7" d="M46.2,278.5h38.9c4,0,7.2,3.2,7.2,7.2c0,4-3.2,7.2-7.2,7.2H48.7h-2.4c-4,0-7.2-3.2-7.2-7.2
				C39,281.7,42.2,278.5,46.2,278.5z"/>
			<g>
				<path class="st10" d="M80.7,283.4H50.6c-0.2,0-0.4-0.2-0.4-0.4c0-0.2,0.2-0.4,0.4-0.4h30.1c0.2,0,0.4,0.2,0.4,0.4
					C81.1,283.2,80.9,283.4,80.7,283.4z"/>
				<path class="st10" d="M76,288.9H50.6c-0.2,0-0.4-0.2-0.4-0.4s0.2-0.4,0.4-0.4H76c0.2,0,0.4,0.2,0.4,0.4S76.2,288.9,76,288.9z"/>
				<path class="st10" d="M69.1,286.3H50.6c-0.2,0-0.4-0.2-0.4-0.4s0.2-0.4,0.4-0.4h18.5c0.2,0,0.4,0.2,0.4,0.4
					S69.3,286.3,69.1,286.3z"/>
				<path class="st10" d="M80.7,286.3h-9.3c-0.2,0-0.4-0.2-0.4-0.4s0.2-0.4,0.4-0.4h9.3c0.2,0,0.4,0.2,0.4,0.4
					S80.9,286.3,80.7,286.3z"/>
			</g>
		</g>
	</g>
	<g>
		<g>
			<path class="st10" d="M333.4,317.6h-69c-0.2,0-0.4-0.2-0.4-0.4c0-0.2,0.2-0.4,0.4-0.4h69c0.2,0,0.4,0.2,0.4,0.4
				C333.8,317.5,333.6,317.6,333.4,317.6z"/>
			<path class="st10" d="M333.4,333.8h-58.3c-0.2,0-0.4-0.2-0.4-0.4c0-0.2,0.2-0.4,0.4-0.4h58.3c0.2,0,0.4,0.2,0.4,0.4
				C333.8,333.7,333.6,333.8,333.4,333.8z"/>
			<path class="st10" d="M333.4,326.2H291c-0.2,0-0.4-0.2-0.4-0.4s0.2-0.4,0.4-0.4h42.4c0.2,0,0.4,0.2,0.4,0.4
				S333.6,326.2,333.4,326.2z"/>
			<path class="st10" d="M285.7,326.2h-21.3c-0.2,0-0.4-0.2-0.4-0.4s0.2-0.4,0.4-0.4h21.3c0.2,0,0.4,0.2,0.4,0.4
				S285.9,326.2,285.7,326.2z"/>
		</g>
		<g>
			<path class="st10" d="M255.3,343.3h-69c-0.2,0-0.4-0.2-0.4-0.4c0-0.2,0.2-0.4,0.4-0.4h69c0.2,0,0.4,0.2,0.4,0.4
				C255.7,343.2,255.5,343.3,255.3,343.3z"/>
			<path class="st10" d="M244.6,359.5h-58.3c-0.2,0-0.4-0.2-0.4-0.4c0-0.2,0.2-0.4,0.4-0.4h58.3c0.2,0,0.4,0.2,0.4,0.4
				C245,359.4,244.8,359.5,244.6,359.5z"/>
			<path class="st10" d="M228.7,351.9h-42.4c-0.2,0-0.4-0.2-0.4-0.4c0-0.2,0.2-0.4,0.4-0.4h42.4c0.2,0,0.4,0.2,0.4,0.4
				C229.1,351.8,228.9,351.9,228.7,351.9z"/>
			<path class="st10" d="M255.3,351.9H234c-0.2,0-0.4-0.2-0.4-0.4c0-0.2,0.2-0.4,0.4-0.4h21.3c0.2,0,0.4,0.2,0.4,0.4
				C255.7,351.8,255.5,351.9,255.3,351.9z"/>
		</g>
	</g>
	<g>
		<g>
			<g>
				<g>
					<g>
						<path class="st14" d="M307.4,277.9L307.4,277.9l10.2-35.5l0,0c0.5-0.9,1.6-2.8,4.1-4.5c4.2-2.9,4.7-7.8,4.7-7.8
							c2.2-2.2,4.8-4,7.1-6.1c0.2-0.2,0.5-0.5,0.6-0.8c0.1-0.4-0.1-0.7-0.3-1c-1.2-1.8-3.4-2-5.2-1.2c-1.1,0.5-2,1.1-2.9,1.9
							c-0.4,0.4-1.9,1.3-2.3,2l8.1-17.3c0.7-1.5,0.2-3.3-1-3.9v0c-0.6-0.3-1.4-0.3-2,0c-0.4,0.2-0.8,0.5-1.1,0.9c0-0.1,0-0.2,0-0.2
							c-9.5-8-21.2,19.2-21.2,19.2l-3.3,7.8l-28.2,52.3c-4,7.6-0.9,17,6.8,20.7l0,0c0.1,0.1,0.2,0.1,0.3,0.2
							c2.3,1.3,4.9,2.1,7.7,2.1h55.5l12-28.4L307.4,277.9z M323.2,225L323.2,225C323.2,225,323.2,225,323.2,225L323.2,225z"/>
						<g>
							<path class="st15" d="M305.8,283.4l-1.4,4.9C304.9,286.7,305.4,285,305.8,283.4z"/>
							<path class="st16" d="M297.9,306.5C296.1,306.5,297.2,306.5,297.9,306.5L297.9,306.5z"/>
							<path class="st16" d="M297.9,306.5c0.3,0,0.5,0,0.5,0C298.2,306.5,298,306.5,297.9,306.5z"/>
							<path class="st16" d="M307.4,277.8l-1.6,5.6c-0.4,1.6-0.9,3.2-1.4,4.9l-2,6.8c-0.3,0.9-0.6,1.7-1,2.5c-1.7,5-3.1,8.9-3.1,8.9
								l20-28.6C313.3,277.9,312.2,277.8,307.4,277.8z"/>
							<path class="st16" d="M297.9,306.5C297.9,306.5,297.9,306.5,297.9,306.5C297.9,306.5,297.9,306.5,297.9,306.5z"/>
						</g>
						<path class="st17" d="M315.4,226.5c-0.1,0-0.1,0-0.2-0.1c-0.2-0.1-0.2-0.3-0.1-0.5c3.5-4.8,8.3-2.2,8.4-2.2
							c0.2,0.1,0.2,0.3,0.1,0.5c-0.1,0.2-0.3,0.2-0.5,0.1c-0.2-0.1-4.3-2.3-7.4,2C315.7,226.4,315.5,226.5,315.4,226.5z"/>
						<path class="st17" d="M327.4,204.4c-1.5,1.8-2.8,3.8-4,5.8c-0.6,1-1.1,2.1-1.6,3.1c-0.4,1.1-0.8,2.2-0.8,3.3l0,0
							c0,0.2-0.1,0.4-0.3,0.4c-0.2,0-0.4-0.1-0.4-0.3c0,0,0,0,0,0c0-1.3,0.4-2.5,0.9-3.6c0.5-1.1,1.1-2.2,1.7-3.2
							c1.3-2,2.7-3.9,4.2-5.8c0.1-0.1,0.2-0.1,0.3,0C327.5,204.2,327.5,204.3,327.4,204.4L327.4,204.4z"/>
						<path class="st17" d="M325,203.4c-0.9,0.6-1.8,1.5-2.5,2.4c-0.7,0.9-1.4,1.9-2,2.9c-0.6,1-1.1,2.1-1.5,3.1
							c-0.2,0.5-0.4,1.1-0.6,1.6l-0.5,1.7l0,0c-0.1,0.2-0.3,0.3-0.4,0.2c-0.2-0.1-0.3-0.3-0.2-0.4c0,0,0,0,0,0l0.5-1.7
							c0.2-0.6,0.4-1.1,0.7-1.7c0.5-1.1,1-2.2,1.6-3.2c0.6-1,1.3-2,2.1-2.9c0.8-0.9,1.6-1.7,2.7-2.4c0.1-0.1,0.2,0,0.3,0.1
							C325.1,203.2,325.1,203.3,325,203.4L325,203.4z"/>
						<path class="st17" d="M321.1,203.6c-1.3,1.4-2.6,2.9-3.7,4.6c-0.5,0.8-1,1.6-1.5,2.5c-0.4,0.9-0.7,1.8-0.9,2.7l0,0
							c0,0.2-0.2,0.3-0.4,0.3s-0.3-0.2-0.3-0.4c0,0,0,0,0,0c0.2-1,0.6-2,1-2.9c0.4-0.9,1-1.7,1.6-2.6c1.2-1.6,2.4-3.1,3.9-4.5
							c0.1-0.1,0.2-0.1,0.3,0C321.2,203.4,321.2,203.6,321.1,203.6L321.1,203.6z"/>
					</g>
					<g>
						<path class="st6" d="M435.5,329.5l-13.6-37.1c-1.6-8.1-9.4-14.3-18.7-14.3l-38-0.3l-42.9,0.2v28.6h13.3l-6.9,74.5l94.4,0.5
							l-0.5-50.5L435.5,329.5z"/>
						<path class="st18" d="M341.8,327.7"/>
					</g>
					<path class="st19" d="M365.1,278.1l0.1-0.3l-42.9,0.2v28.6h13.3l0.1-0.8C335.7,290.7,348.8,278.4,365.1,278.1z"/>
					<path class="st20" d="M310.9,236.8c0,0,2.4,20.4,2.5,19.9c0.1-0.5,4.1-14.4,4.1-14.4L310.9,236.8z"/>
				</g>
			</g>
		</g>
		<g>
			<g>
				<path class="st8" d="M367.1,340.2l-3.6-18.2l-2.8-14c-0.3-1.6-1.9-2.7-3.6-2.4l-13.9,2.8c-1.6,0.3-2.7,1.9-2.4,3.6l2.8,14.1
					l2.2,11.2l1.4,6.9c0.3,1.6,1.9,2.7,3.6,2.4l8.2-1.6l5.7-1.1C366.3,343.5,367.4,341.9,367.1,340.2z"/>
			</g>
			<g>
				<path class="st14" d="M441.1,356.9l-6.3-27.3l-28.5,3.5l1.6,6.9l-0.1,0l-31-7.7l0,0c-0.9-0.4-2.5-1.5-3.9-3.6c-2.6-3.9-7-4-7-4
					c-0.8-0.9-1.6-1.8-2.4-2.8l0.7,3.7l-0.2,0.1c-2,1-4.2,1.5-6.4,1.3c-4.1-0.3-10.8-0.8-13.6-1.1c-0.9-0.1-1.7,0.4-2,1.2
					c-4,8.4,13.1,16.1,17.1,17.7l0,0c0.1,0,0.1,0,0.1,0.1c0.1,0,0.1,0,0.2,0.1c0.1,0,0.1,0,0.1,0.1c0,0,0.1,0,0.1,0.1
					c0.1,0,0.1,0,0.1,0c0,0,0,0,0,0c0,0,0.1,0,0.1,0l6.7,2.5l53.1,26.1c0.5,0.2,1,0.4,1.5,0.6c2.6,1.2,5.5,1.6,8.5,0.9l0,0
					C437.9,373.5,443,365.2,441.1,356.9z"/>
				<path class="st16" d="M439.1,348.1l-32.8-15c1.1,4.8,0.5,2.7,1.4,6.9l2.2,0.6C419.4,341.2,439.1,348.1,439.1,348.1z"/>
			</g>
			<path class="st21" d="M403.7,333.5c-0.2,0-0.3-0.1-0.3-0.3l-4.1-19.8c0-0.2,0.1-0.4,0.3-0.4c0.2,0,0.4,0.1,0.4,0.3l4,19.5
				l13.8-1.8c0.2,0,0.4,0.1,0.4,0.3c0,0.2-0.1,0.4-0.3,0.4L403.7,333.5C403.7,333.5,403.7,333.5,403.7,333.5z"/>
		</g>
		<g>
			<path class="st16" d="M439.3,349.3c0,0.1,0,0.2,0.1,0.3C439.4,349.5,439.4,349.4,439.3,349.3z"/>
			<path class="st16" d="M439.4,349.5C439.4,349.6,439.4,349.6,439.4,349.5L439.4,349.5z"/>
			<path class="st16" d="M439.1,348.1c0,0,0.1,0.4,0.1,0.8C439.2,348.7,439.2,348.4,439.1,348.1z"/>
			<path class="st16" d="M439.3,348.9c0,0.2,0.1,0.3,0.1,0.4C439.3,349.1,439.3,349,439.3,348.9z"/>
		</g>
		<g>
			<g>
				<path class="st8" d="M400.5,204.6c-0.9-6-6.3-10.2-12.4-9.6c-1.6,0.2-3.1,0.7-4.4,1.5c-1.9-3.2-5.6-5.1-9.6-4.7
					c-2.3,0.3-4.2,1.3-5.8,2.7c-2.2-1.1-4.7-1.6-7.3-1.3c-7.2,0.8-12.3,7.3-11.5,14.4c0.4,3.3,2,6.3,4.3,8.3l-2.7,14.2
					c-0.8,4.1,1.9,8,6,8.7l31.4,5.9c4.1,0.8,8-1.9,8.7-6l5.1-27.5C403,208.7,402.2,206.2,400.5,204.6z"/>
				<g>
					<path class="st9" d="M354.7,212.3c-0.1,0-0.2-0.1-0.3-0.2c-5.6-8.9,2.1-14.6,2.2-14.6c0.2-0.1,0.4-0.1,0.5,0.1
						c0.1,0.2,0.1,0.4-0.1,0.5c-0.3,0.2-7.3,5.4-2,13.7c0.1,0.2,0.1,0.4-0.1,0.5C354.8,212.3,354.7,212.3,354.7,212.3z"/>
				</g>
			</g>
			<g>
				<g>
					<path class="st14" d="M395.4,232.3l-0.7-0.1l-6.9-14.9c-1.7-0.2-3.3-0.9-4.7-1.8c-1.3,1.4-3.2,2.4-5.3,2.7
						c-2.5,0.3-4.9-0.6-6.7-2.2c-1.9,1.7-4.4,2.9-7.1,3.2c-3.1,0.4-6.2-0.4-8.6-2.1l-4.8,25.8c-0.7,3.6,0.1,7.1,1.8,9.9
						c1.7,4.2,5.4,7.6,10.2,8.7v17c0,5.9,4.8,10.8,10.8,10.8h3.4c5.9,0,10.8-4.8,10.8-10.8v-19.4c1.7-1.9,3-4.3,3.5-7.1l0.9-4.7
						l0.7,0.1c4.1,0.8,8-1.9,8.8-6l0.1-0.4C402.2,237.1,399.5,233.1,395.4,232.3z"/>
				</g>
				<path class="st22" d="M390.3,246.8l-0.6,3.4c-1.5,7.8-8.9,12.9-16.7,11.4l-11-2.1c-4.2-0.8-7.6-3.3-9.6-6.7
					c1.8,4.4,5.7,7.9,10.7,8.8l0.4,0.1c1.7,3.6,5.4,6.1,9.7,6.1h3.4c5.1,0,9.4-3.6,10.5-8.3c1.9-2,3.3-4.5,3.8-7.4l0.9-4.7
					L390.3,246.8z"/>
			</g>
			<g>
				<path class="st17" d="M396,242.4c-0.1,0-0.2,0-0.2-0.1l-2.7-2.1c-0.1-0.1-0.1-0.2-0.1-0.3c0-0.1,0-0.2,0.1-0.3l3.4-3.2
					c0.1-0.1,0.4-0.1,0.5,0c0.1,0.1,0.1,0.4,0,0.5l-3.1,2.9l2.4,1.9c0.2,0.1,0.2,0.3,0.1,0.5C396.2,242.4,396.1,242.4,396,242.4z"/>
				<g>
					<g>
						<g>
							<g>
								<path class="st8" d="M378.6,229.3c-0.5,0-1.1-0.3-1.6-0.6c-0.5-0.3-1.1-0.6-1.6-0.8c-0.5-0.2-1.1-0.5-1.6-0.7
									c-0.6-0.2-1.2-0.4-1.5-0.8c-0.3-0.4-0.3-1,0.5-1.4c0.7-0.4,2.3-0.5,3.9,0.3c1.6,0.8,2.5,2,2.7,2.8
									C379.5,228.9,379.1,229.4,378.6,229.3z"/>
							</g>
							<g>
								<path class="st8" d="M356.2,227.4c0.5,0.3,1.1,0.3,1.7,0.3c0.6,0.1,1.2,0.1,1.8,0.2c0.5,0.1,1.1,0.2,1.7,0.3
									c0.6,0.1,1.2,0.2,1.7,0.1c0.5-0.1,0.7-0.6,0.3-1.3c-0.4-0.7-1.7-1.5-3.4-1.7c-1.8-0.2-3.2,0.2-3.7,0.7
									C355.6,226.6,355.7,227.2,356.2,227.4z"/>
							</g>
						</g>
					</g>
					<path class="st8" d="M373.2,235.3l0.4,0.1c0.4,0.1,0.8-0.2,0.8-0.6l0.3-1.4c0.1-0.4-0.2-0.8-0.6-0.8l-0.4-0.1
						c-0.4-0.1-0.8,0.2-0.8,0.6l-0.3,1.4C372.6,234.9,372.8,235.3,373.2,235.3z"/>
					<path class="st8" d="M358,232.9l0.4,0.1c0.4,0.1,0.8-0.2,0.8-0.6l0.3-1.4c0.1-0.4-0.2-0.8-0.6-0.8l-0.4-0.1
						c-0.4-0.1-0.8,0.2-0.8,0.6l-0.3,1.4C357.4,232.4,357.7,232.8,358,232.9z"/>
					<path class="st16" d="M373.8,239.4l3.5,0.4c0.5,0.1,0.9-0.3,1-0.8l0.1-0.5c0.1-0.5-0.3-0.9-0.8-1l-3.5-0.4
						c-0.5-0.1-0.9,0.3-1,0.8l-0.1,0.5C373,238.9,373.3,239.3,373.8,239.4z"/>
					<path class="st16" d="M353.3,236.1l3.5,0.4c0.5,0.1,0.9-0.3,1-0.8l0.1-0.5c0.1-0.5-0.3-0.9-0.8-1l-3.5-0.4
						c-0.5-0.1-0.9,0.3-1,0.8l-0.1,0.5C352.4,235.6,352.8,236.1,353.3,236.1z"/>
					<path class="st17" d="M362.5,252.1c-0.1,0-0.2,0-0.3-0.1c-0.1-0.2-0.1-0.4,0.1-0.5c1.5-1.1,3.1-0.5,3.8,0
						c0.2,0.1,0.2,0.3,0.1,0.5s-0.3,0.2-0.5,0.1c-0.1,0-1.5-1.1-3,0C362.7,252.1,362.6,252.1,362.5,252.1z"/>
					<path class="st10" d="M364.9,242.1l8.2-1.2l-0.9,2.9c-0.6,1.8-2.3,3.1-4.2,3.1h0c-1.5,0-2.7-1.1-2.9-2.6L364.9,242.1z"/>
					<path class="st17" d="M367.1,239.2C367,239.2,367,239.2,367.1,239.2l-2.6-0.7c-1.1-0.3-2-1-2.4-2.1c-0.4-1-0.4-2.2,0.2-3.2
						l3.9-7c0.1-0.2,0.3-0.2,0.5-0.1c0.2,0.1,0.2,0.3,0.1,0.5l-3.9,7c-0.4,0.8-0.5,1.7-0.1,2.5c0.4,0.8,1.1,1.4,1.9,1.7l2.6,0.7
						c0.2,0,0.3,0.2,0.3,0.4C367.4,239.1,367.2,239.2,367.1,239.2z"/>
				</g>
			</g>
		</g>
	</g>
	<g>
		<g>
			<g>
				<g>
					<path class="st14" d="M247.5,289.8l-28.2-52.3l-3.3-7.8c0,0-11.7-27.2-21.2-19.2c0,0,0,0.1,0,0.2c-0.3-0.4-0.7-0.7-1.1-0.9
						c-0.7-0.3-1.4-0.3-2,0l0,0c-1.3,0.6-1.8,2.4-1,3.9l8.1,17.3c-0.4-0.6-1.9-1.6-2.3-2c-0.9-0.7-1.8-1.4-2.9-1.9
						c-1.8-0.8-4-0.6-5.2,1.2c-0.2,0.3-0.4,0.7-0.3,1c0.1,0.3,0.3,0.6,0.6,0.8c2.3,2.1,4.8,4,7.1,6.1c0,0,0.5,4.9,4.7,7.8
						c2.4,1.7,3.6,3.6,4.1,4.5l0,0l10.2,35.5l-14.9,0.2v28.4h33c2.8,0,5.4-0.8,7.7-2.1c0.1,0,0.2-0.1,0.3-0.1h0
						C248.4,306.8,251.5,297.4,247.5,289.8z"/>
					<path class="st16" d="M223.6,312.7C226.9,312.6,223.6,312.7,223.6,312.7s-7.7-20.6-9-28.7c-5.1,0-5.9,0.2-10.9,0.2L223.6,312.7
						z"/>
					<path class="st17" d="M206.5,232.7c-0.1,0-0.2,0-0.3-0.1c-3.2-4.3-7.3-2.1-7.4-2c-0.2,0.1-0.4,0-0.5-0.1
						c-0.1-0.2,0-0.4,0.1-0.5c0,0,4.8-2.6,8.4,2.2c0.1,0.2,0.1,0.4-0.1,0.5C206.7,232.7,206.6,232.7,206.5,232.7z"/>
					<path class="st17" d="M194.9,210.3c0.9,0.9,1.6,1.8,2.4,2.7c0.7,0.9,1.4,1.9,2,3c0.6,1,1.1,2.1,1.6,3.3
						c0.4,1.1,0.7,2.3,0.8,3.6c0,0.2-0.1,0.4-0.3,0.4c-0.2,0-0.4-0.1-0.4-0.3c0,0,0,0,0,0l0,0c-0.1-1.1-0.3-2.3-0.7-3.4
						c-0.4-1.1-0.9-2.2-1.5-3.2c-0.6-1-1.2-2-1.9-2.9c-0.7-0.9-1.5-1.9-2.3-2.7l0,0c-0.1-0.1-0.1-0.2,0-0.3
						C194.7,210.2,194.8,210.2,194.9,210.3z"/>
					<path class="st17" d="M197.2,208.9c1.1,0.6,2,1.5,2.8,2.4c0.8,0.9,1.4,2,2,3c0.6,1.1,1.1,2.2,1.6,3.3l0.6,1.7l0.6,1.7
						c0.1,0.2,0,0.4-0.2,0.4c-0.2,0.1-0.4,0-0.4-0.2c0,0,0,0,0,0l0,0l-0.5-1.7l-0.6-1.7c-0.4-1.1-0.9-2.2-1.5-3.2
						c-0.5-1-1.2-2-1.9-3c-0.7-0.9-1.6-1.8-2.6-2.3l0,0c-0.1-0.1-0.1-0.2-0.1-0.3C197,208.9,197.1,208.9,197.2,208.9z"/>
					<path class="st17" d="M201.1,209.5c0.8,0.6,1.5,1.3,2.2,2.1c0.7,0.8,1.3,1.5,1.8,2.4c0.5,0.8,1,1.7,1.4,2.6
						c0.4,0.9,0.7,1.9,1,2.8c0.1,0.2,0,0.4-0.2,0.4c-0.2,0.1-0.4,0-0.4-0.2c0,0,0,0,0,0l0,0c-0.3-0.9-0.5-1.9-0.9-2.8
						c-0.4-0.9-0.8-1.8-1.3-2.6c-0.5-0.8-1.1-1.6-1.7-2.4c-0.6-0.7-1.3-1.5-2-2.1l0,0c-0.1-0.1-0.1-0.2,0-0.3
						C200.9,209.5,201,209.5,201.1,209.5z"/>
					<path class="st20" d="M203.1,246.5l10.9-1.3l-6.7,13.4C207.3,258.6,205.3,248.6,203.1,246.5z"/>
				</g>
				<g>
					<path class="st10" d="M159.3,284.3L159.3,284.3c-0.2,0-0.3,0-0.5,0h-34.4c-7.5,0-13.9,4.7-16.4,11.3l0,0l-0.1,0.1
						c0,0,0,0,0,0.1l-14.6,39.9l13.6,1.7v44.3h74l5.5-69h12.9v-28.6L159.3,284.3z"/>
					<path class="st19" d="M199.7,284.2l-39.3,0.2l0,0c14.7,0.6,26.5,12.8,26.5,27.6l-0.1,0.8h12.9V284.2z"/>
					<path class="st18" d="M187.4,333.9"/>
				</g>
			</g>
		</g>
		<g>
			<path class="st8" d="M185.9,314.6l-13.9-2.8c-1.6-0.3-3.3,0.8-3.6,2.4l-2.8,14l-3.6,18.2c-0.3,1.6,0.8,3.3,2.4,3.6l5.7,1.1
				l8.2,1.6c1.6,0.3,3.3-0.8,3.6-2.4l1.4-6.9l2.2-11.2l2.8-14.1C188.7,316.6,187.6,314.9,185.9,314.6z"/>
			<g>
				<path class="st14" d="M187.4,333.3c-0.2-0.4-0.4-0.7-0.8-0.9c-0.1-0.1-0.1-0.2-0.2-0.3c0,0-0.1,0-0.3,0
					c-0.2-0.1-0.5-0.1-0.8-0.1c-2.8,0.2-9.5,0.7-13.6,1.1c-2.2,0.2-4.4-0.3-6.4-1.3l-0.3-0.2l0.7-3.4c-0.7,0.9-1.5,1.8-2.3,2.6
					c-0.4,0-2.7,0.2-4.8,1.8c-0.8,0.6-1.6,1.3-2.2,2.3c-0.8,1.3-1.7,2.1-2.5,2.7c-0.5,0.3-0.9,0.6-1.2,0.7l0,0l-31,7.7l-0.1,0l1.6-7
					l-28.5-3.5L88.2,363c-1.9,8.3,3.3,16.5,11.6,18.5l0,0c3,0.7,5.9,0.3,8.5-0.9c0.5-0.2,1-0.4,1.5-0.6l52.5-25.8l7.1-2.7
					c0,0,0.3-0.1,0.8-0.3l-0.1,0C173.3,349.8,191.5,341.9,187.4,333.3z"/>
				<g>
					<path class="st16" d="M89.8,355.4c0,0.1,0,0.2-0.1,0.3C89.8,355.7,89.8,355.6,89.8,355.4z"/>
					<path class="st16" d="M121.4,346.2c0.6-3,0.5-2.7,1.4-6.9L90,354.3c0,0,3.2-1,7.7-2.2c0.4-0.2,0.8-0.3,1.3-0.4L121.4,346.2z"/>
					<path class="st16" d="M89.9,355c0,0.1-0.1,0.3-0.1,0.4C89.8,355.3,89.9,355.2,89.9,355z"/>
					<path class="st16" d="M89.7,355.7C89.7,355.8,89.7,355.8,89.7,355.7L89.7,355.7z"/>
					<path class="st16" d="M90,354.3c-0.1,0.3-0.1,0.5-0.1,0.7C90,354.7,90,354.3,90,354.3z"/>
				</g>
				<path class="st21" d="M125.4,339.6C125.4,339.6,125.4,339.6,125.4,339.6l-6.3-0.8c-0.2,0-0.3-0.2-0.3-0.4c0-0.2,0.2-0.3,0.4-0.3
					l5.9,0.7l3.3-20.9c0-0.2,0.2-0.3,0.4-0.3c0.2,0,0.3,0.2,0.3,0.4l-3.3,21.2C125.8,339.5,125.6,339.6,125.4,339.6z"/>
			</g>
			<path class="st23" d="M132.7,343.3l14.1-0.4c2.6,0.3,6.8-2,6.3-4.6l0,0L132.7,343.3z"/>
		</g>
		<g>
			<g>
				<path class="st8" d="M177,275.3l-4.8-32.5c-0.5-3.6-1.6-6.9-3-10l2.6-0.4c0,0-1.8-26.4-31.4-20.1c-2.9-0.3-5.9-0.3-9,0.2h0
					c-14.4,2.1-24.3,15.5-22.2,29.9l2.8,19c2.1,14.4,15.5,24.3,29.9,22.2l32.6-4.8C176.2,278.5,177.3,276.9,177,275.3z"/>
				<path class="st9" d="M157.4,231.3c-0.2,0-0.3-0.1-0.3-0.3c0-0.2,0.1-0.4,0.3-0.4l9.5-1.3c0.1,0,0.1-0.1,0.2-0.1
					c0,0,0.1-0.1,0-0.2c-1.5-8.6-9.4-12.5-9.5-12.6c-0.2-0.1-0.2-0.3-0.2-0.5c0.1-0.2,0.3-0.2,0.5-0.2c0.1,0,8.3,4.1,9.9,13.1
					c0,0.3,0,0.5-0.2,0.7c-0.2,0.2-0.4,0.4-0.7,0.4L157.4,231.3C157.4,231.3,157.4,231.3,157.4,231.3z"/>
			</g>
			<g>
				<g>
					<path class="st14" d="M166.6,233.2l-26.1,4.2l-6.3-9.4c1.2,10.4-6.5,17.2-6.5,17.2s-0.1-0.1-0.2-0.3l-0.2,0
						c-4.1,0.8-6.8,4.7-6,8.8l0,0c0.8,4.1,4.7,6.8,8.8,6l0.5-0.1c0.9,3.9,2.9,7.3,5.6,9.9v16.7c0,5.9,4.8,10.8,10.8,10.8h0
						c5.9,0,10.8-4.8,10.8-10.8v-13.2c4.3-2,7.6-5.4,9.6-9.6c0,0,0,0,0,0c2.3-3.9,3.3-8.6,2.4-13.5L166.6,233.2z"/>
				</g>
				<path class="st22" d="M154.3,272.5L154.3,272.5c-9.7,1.8-19-3.9-21.9-13c-0.1-0.3-1.8,0.1-1.8,0.3c0.9,3.9,2.9,7.2,5.7,9.8
					c0.5,5.5,5.1,9.8,10.7,9.8h0c4.1,0,7.7-2.4,9.5-5.8c4.9-1.9,8.7-5.6,10.8-10.1C164.6,268,160,271.5,154.3,272.5z"/>
			</g>
			<g>
				<path class="st17" d="M126.5,254.8c-0.1,0-0.2,0-0.3-0.1c-0.1-0.2-0.1-0.4,0.1-0.5l2.3-1.8l-3-2.8c-0.1-0.1-0.1-0.4,0-0.5
					c0.1-0.1,0.4-0.1,0.5,0l3.3,3.1c0.1,0.1,0.1,0.2,0.1,0.3c0,0.1-0.1,0.2-0.1,0.3l-2.7,2.1C126.7,254.8,126.6,254.8,126.5,254.8z"
					/>
				<g>
					<g>
						<g>
							<g>
								<g>
									<path class="st8" d="M145.3,242c0.3,0,0.6-0.2,1-0.4c0.3-0.2,0.6-0.3,0.9-0.5c0.3-0.1,0.6-0.3,1-0.4
										c0.3-0.1,0.7-0.3,0.9-0.5c0.2-0.2,0.2-0.6-0.3-0.8c-0.4-0.2-1.4-0.3-2.3,0.2c-1,0.4-1.5,1.2-1.6,1.7
										C144.7,241.7,145,242,145.3,242z"/>
								</g>
								<g>
									<path class="st8" d="M163.9,238.7c-0.3,0.1-0.7,0-1-0.1c-0.4-0.1-0.7-0.1-1-0.2c-0.3,0-0.7-0.1-1-0.1c-0.4,0-0.7-0.1-1-0.2
										c-0.3-0.2-0.3-0.5,0.1-0.9c0.4-0.3,1.2-0.6,2.3-0.5c1,0.2,1.8,0.7,2,1.2C164.4,238.3,164.2,238.7,163.9,238.7z"/>
								</g>
							</g>
						</g>
						<path class="st17" d="M153.4,256.5c-2.9,0-4.8-2.3-4.8-2.3c-0.1-0.1-0.1-0.4,0-0.5c0.1-0.1,0.4-0.1,0.5,0
							c0.1,0.1,2.8,3.3,6.5,1.5c0.2-0.1,0.4,0,0.5,0.2c0.1,0.2,0,0.4-0.2,0.5C155,256.4,154.2,256.5,153.4,256.5z"/>
						<path class="st17" d="M155.5,251.6c-0.2,0-0.3-0.1-0.3-0.3c0-0.2,0.1-0.4,0.3-0.4l2.5-0.5c1.5-0.3,2.5-1.8,2.2-3.3
							c-0.1-0.6-0.7-0.9-1.2-0.8c-1.3,0.3-2.6-0.6-2.8-1.9l-0.6-3c0-0.2,0.1-0.4,0.3-0.4c0.2,0,0.4,0.1,0.4,0.3l0.6,3
							c0.2,0.9,1.1,1.5,2,1.3c0.5-0.1,0.9,0,1.3,0.3c0.4,0.3,0.6,0.6,0.7,1.1c0.4,1.9-0.9,3.8-2.8,4.2L155.5,251.6
							C155.5,251.6,155.5,251.6,155.5,251.6z"/>
						<path class="st8" d="M148.5,247.9L148.5,247.9c-0.5,0.1-0.9-0.2-1-0.7l-0.2-1c-0.1-0.5,0.2-0.9,0.7-1l0,0
							c0.5-0.1,0.9,0.2,1,0.7l0.2,1C149.3,247.4,149,247.8,148.5,247.9z"/>
						<path class="st8" d="M163.2,245.5L163.2,245.5c-0.5,0.1-0.9-0.2-1-0.7l-0.2-1c-0.1-0.5,0.2-0.9,0.7-1l0,0
							c0.5-0.1,0.9,0.2,1,0.7l0.2,1C164,245,163.7,245.4,163.2,245.5z"/>
						<path class="st16" d="M147.9,251.8l-3,0.3c-0.6,0.1-1.1-0.4-1.2-1l0,0c-0.1-0.6,0.4-1.1,1-1.2l3-0.3c0.6-0.1,1.1,0.4,1.2,1v0
							C148.9,251.2,148.5,251.8,147.9,251.8z"/>
						<path class="st16" d="M167.9,248.7l-3,0.3c-0.6,0.1-1.1-0.4-1.2-1l0,0c-0.1-0.6,0.4-1.1,1-1.2l3-0.3c0.6-0.1,1.1,0.4,1.2,1
							l0,0C168.9,248.1,168.4,248.6,167.9,248.7z"/>
						<path class="st17" d="M159.1,264.2c-0.1,0-0.1,0-0.2-0.1c-1.4-1-2.8,0-2.9,0c-0.2,0.1-0.4,0.1-0.5-0.1
							c-0.1-0.2-0.1-0.4,0.1-0.5c0.7-0.5,2.3-1,3.7,0c0.2,0.1,0.2,0.3,0.1,0.5C159.3,264.2,159.2,264.2,159.1,264.2z"/>
					</g>
				</g>
			</g>
		</g>
	</g>
</g>
<g>
</g>
<g>
</g>
<g>
</g>
<g>
</g>
<g>
</g>
<g>
</g>
<g>
</g>
<g>
</g>
<g>
</g>
<g>
</g>
<g>
</g>
<g>
</g>
<g>
</g>
<g>
</g>
<g>
</g>
</svg>
